<mxfile host="65bd71144e">
    <diagram id="3ZglXpLOzRizWeZasyzj" name="Page-1">
        <mxGraphModel dx="1173" dy="659" grid="1" gridSize="10" guides="1" tooltips="1" connect="1" arrows="1" fold="1" page="1" pageScale="1" pageWidth="2339" pageHeight="3300" background="none" math="0" shadow="0">
            <root>
                <mxCell id="0"/>
                <mxCell id="1" parent="0"/>
                <mxCell id="2" value="Customer" style="swimlane;childLayout=stackLayout;horizontal=1;startSize=30;horizontalStack=0;rounded=1;fontSize=14;fontStyle=1;strokeWidth=2;resizeParent=0;resizeLast=1;shadow=0;dashed=0;align=center;" parent="1" vertex="1">
                    <mxGeometry x="220" y="440" width="180" height="120" as="geometry"/>
                </mxCell>
                <mxCell id="3" value="product_name (varchar)&#10;qty (int)" style="align=center;strokeColor=none;fillColor=none;spacingLeft=4;fontSize=16;verticalAlign=top;resizable=0;rotatable=0;part=1;" parent="2" vertex="1">
                    <mxGeometry y="30" width="180" height="90" as="geometry"/>
                </mxCell>
                <mxCell id="5" value="Authorized Employee" style="swimlane;childLayout=stackLayout;horizontal=1;startSize=30;horizontalStack=0;rounded=1;fontSize=14;fontStyle=1;strokeWidth=2;resizeParent=0;resizeLast=1;shadow=0;dashed=0;align=center;" parent="1" vertex="1">
                    <mxGeometry x="200" y="882" width="220" height="120" as="geometry"/>
                </mxCell>
                <mxCell id="6" value="employee_id (int)&#10;employee_name (varchar)" style="align=center;strokeColor=none;fillColor=none;spacingLeft=4;fontSize=16;verticalAlign=top;resizable=0;rotatable=0;part=1;" parent="5" vertex="1">
                    <mxGeometry y="30" width="220" height="90" as="geometry"/>
                </mxCell>
                <mxCell id="7" value="Order" style="swimlane;childLayout=stackLayout;horizontal=1;startSize=30;horizontalStack=0;rounded=1;fontSize=14;fontStyle=1;strokeWidth=2;resizeParent=0;resizeLast=1;shadow=0;dashed=0;align=center;" parent="1" vertex="1">
                    <mxGeometry x="210" y="1090" width="200" height="192" as="geometry"/>
                </mxCell>
                <mxCell id="8" value="product_id (int)[FK]&#10;product_name (varchar)&#10;qty (int)&#10;total price (float)" style="align=center;strokeColor=none;fillColor=none;spacingLeft=4;fontSize=16;verticalAlign=top;resizable=0;rotatable=0;part=1;" parent="7" vertex="1">
                    <mxGeometry y="30" width="200" height="162" as="geometry"/>
                </mxCell>
                <mxCell id="12" value="Report/Invoice" style="swimlane;childLayout=stackLayout;horizontal=1;startSize=30;horizontalStack=0;rounded=1;fontSize=14;fontStyle=1;strokeWidth=2;resizeParent=0;resizeLast=1;shadow=0;dashed=0;align=center;" parent="1" vertex="1">
                    <mxGeometry x="1120" y="1569" width="200" height="190" as="geometry"/>
                </mxCell>
                <mxCell id="13" value="product_id (int)[FK]&#10;product_name (varchar)&#10;qty (int)&#10;total_price (float)&#10;customer_name (varchar)&#10;contact_info (varchar)&#10;date_of_transaction (int)" style="align=center;strokeColor=none;fillColor=none;spacingLeft=4;fontSize=16;verticalAlign=top;resizable=0;rotatable=0;part=1;" parent="12" vertex="1">
                    <mxGeometry y="30" width="200" height="160" as="geometry"/>
                </mxCell>
                <mxCell id="15" value="Complete Order" style="swimlane;childLayout=stackLayout;horizontal=1;startSize=30;horizontalStack=0;rounded=1;fontSize=14;fontStyle=1;strokeWidth=2;resizeParent=0;resizeLast=1;shadow=0;dashed=0;align=center;" parent="1" vertex="1">
                    <mxGeometry x="670" y="1569" width="200" height="181" as="geometry"/>
                </mxCell>
                <mxCell id="16" value="product_id (int)[FK]&#10;product_name (varchar)&#10;qty (int)&#10;total_price (float)&#10;customer_name (varchar)&#10;contact_info (varchar)&#10;date_of_transaction (int)" style="align=center;strokeColor=none;fillColor=none;spacingLeft=4;fontSize=16;verticalAlign=top;resizable=0;rotatable=0;part=1;" parent="15" vertex="1">
                    <mxGeometry y="30" width="200" height="151" as="geometry"/>
                </mxCell>
                <mxCell id="17" value="Orders List" style="swimlane;childLayout=stackLayout;horizontal=1;startSize=30;horizontalStack=0;rounded=1;fontSize=14;fontStyle=1;strokeWidth=2;resizeParent=0;resizeLast=1;shadow=0;dashed=0;align=center;" parent="1" vertex="1">
                    <mxGeometry x="210" y="1429" width="200" height="190" as="geometry"/>
                </mxCell>
                <mxCell id="18" value="product_id (int)[FK]&#10;product_name (varchar)&#10;qty (int)&#10;total_price (float)&#10;customer_name (varchar)&#10;contact_info (varchar)&#10;date_of_transaction (int)" style="align=center;strokeColor=none;fillColor=none;spacingLeft=4;fontSize=16;verticalAlign=top;resizable=0;rotatable=0;part=1;" parent="17" vertex="1">
                    <mxGeometry y="30" width="200" height="160" as="geometry"/>
                </mxCell>
                <mxCell id="25" value="Delete Order" style="swimlane;childLayout=stackLayout;horizontal=1;startSize=30;horizontalStack=0;rounded=1;fontSize=14;fontStyle=1;strokeWidth=2;resizeParent=0;resizeLast=1;shadow=0;dashed=0;align=center;" parent="1" vertex="1">
                    <mxGeometry x="670" y="1409" width="200" height="120" as="geometry"/>
                </mxCell>
                <mxCell id="26" value="product_name (varchar)&#10;stocks (int)" style="align=center;strokeColor=none;fillColor=none;spacingLeft=4;fontSize=16;verticalAlign=top;resizable=0;rotatable=0;part=1;" parent="25" vertex="1">
                    <mxGeometry y="30" width="200" height="90" as="geometry"/>
                </mxCell>
                <mxCell id="31" value="Audit/History Log" style="swimlane;childLayout=stackLayout;horizontal=1;startSize=30;horizontalStack=0;rounded=1;fontSize=14;fontStyle=1;strokeWidth=2;resizeParent=0;resizeLast=1;shadow=0;dashed=0;align=center;" parent="1" vertex="1">
                    <mxGeometry x="1120" y="1339" width="200" height="190" as="geometry"/>
                </mxCell>
                <mxCell id="32" value="product_id (int)&#10;product_name (varchar)&#10;qty (int)&#10;total_price (float)&#10;customer_name (varchar)&#10;contact_info (varchar)&#10;date_of_transaction (int)" style="align=center;strokeColor=none;fillColor=none;spacingLeft=4;fontSize=16;verticalAlign=top;resizable=0;rotatable=0;part=1;" parent="31" vertex="1">
                    <mxGeometry y="30" width="200" height="160" as="geometry"/>
                </mxCell>
                <mxCell id="37" value="Inventory" style="swimlane;childLayout=stackLayout;horizontal=1;startSize=30;horizontalStack=0;rounded=1;fontSize=14;fontStyle=1;strokeWidth=2;resizeParent=0;resizeLast=1;shadow=0;dashed=0;align=center;" parent="1" vertex="1">
                    <mxGeometry x="670" y="1142" width="200" height="130" as="geometry"/>
                </mxCell>
                <mxCell id="38" value="product_id (int)&#10;product_name (varchar)&#10;qty (int)&#10;price (float) " style="align=center;strokeColor=none;fillColor=none;spacingLeft=4;fontSize=16;verticalAlign=top;resizable=0;rotatable=0;part=1;" parent="37" vertex="1">
                    <mxGeometry y="30" width="200" height="100" as="geometry"/>
                </mxCell>
                <mxCell id="46" value="Supplier" style="swimlane;childLayout=stackLayout;horizontal=1;startSize=30;horizontalStack=0;rounded=1;fontSize=14;fontStyle=1;strokeWidth=2;resizeParent=0;resizeLast=1;shadow=0;dashed=0;align=center;" parent="1" vertex="1">
                    <mxGeometry x="1065" y="1152" width="310" height="120" as="geometry"/>
                </mxCell>
                <mxCell id="47" value="product_id (int)&#10;product_name (varchar)&#10;qty (int)&#10;price (float) " style="align=center;strokeColor=none;fillColor=none;spacingLeft=4;fontSize=16;verticalAlign=top;resizable=0;rotatable=0;part=1;" parent="46" vertex="1">
                    <mxGeometry y="30" width="310" height="90" as="geometry"/>
                </mxCell>
                <mxCell id="49" value="Analytics" style="swimlane;childLayout=stackLayout;horizontal=1;startSize=30;horizontalStack=0;rounded=1;fontSize=14;fontStyle=1;strokeWidth=2;resizeParent=0;resizeLast=1;shadow=0;dashed=0;align=center;" parent="1" vertex="1">
                    <mxGeometry x="1530" y="1459" width="200" height="190" as="geometry"/>
                </mxCell>
                <mxCell id="50" value="product_name (varchar)&#10;price (float) &#10;category (varchar)" style="align=center;strokeColor=none;fillColor=none;spacingLeft=4;fontSize=16;verticalAlign=top;resizable=0;rotatable=0;part=1;" parent="49" vertex="1">
                    <mxGeometry y="30" width="200" height="160" as="geometry"/>
                </mxCell>
                <mxCell id="54" value="" style="fontSize=12;html=1;endArrow=ERoneToMany;exitX=0.5;exitY=1;exitDx=0;exitDy=0;entryX=0.5;entryY=0;entryDx=0;entryDy=0;" parent="1" source="6" target="7" edge="1">
                    <mxGeometry width="100" height="100" relative="1" as="geometry">
                        <mxPoint x="610" y="652" as="sourcePoint"/>
                        <mxPoint x="710" y="552" as="targetPoint"/>
                    </mxGeometry>
                </mxCell>
                <mxCell id="62" value="Create" style="edgeLabel;html=1;align=center;verticalAlign=middle;resizable=0;points=[];fontSize=16;" parent="54" vertex="1" connectable="0">
                    <mxGeometry x="0.0353" relative="1" as="geometry">
                        <mxPoint as="offset"/>
                    </mxGeometry>
                </mxCell>
                <mxCell id="63" value="" style="fontSize=12;html=1;endArrow=ERmandOne;startArrow=ERmandOne;exitX=1;exitY=0.5;exitDx=0;exitDy=0;entryX=0;entryY=0.25;entryDx=0;entryDy=0;" parent="1" source="8" target="38" edge="1">
                    <mxGeometry width="100" height="100" relative="1" as="geometry">
                        <mxPoint x="950" y="672" as="sourcePoint"/>
                        <mxPoint x="670" y="1208" as="targetPoint"/>
                    </mxGeometry>
                </mxCell>
                <mxCell id="64" value="Validate Product stock" style="edgeLabel;html=1;align=center;verticalAlign=middle;resizable=0;points=[];fontSize=16;" parent="63" vertex="1" connectable="0">
                    <mxGeometry x="-0.0247" y="-3" relative="1" as="geometry">
                        <mxPoint as="offset"/>
                    </mxGeometry>
                </mxCell>
                <mxCell id="65" value="" style="fontSize=12;html=1;endArrow=ERoneToMany;exitX=0.5;exitY=1;exitDx=0;exitDy=0;entryX=0.5;entryY=0;entryDx=0;entryDy=0;spacingTop=0;" parent="1" source="8" target="17" edge="1">
                    <mxGeometry width="100" height="100" relative="1" as="geometry">
                        <mxPoint x="480" y="1322" as="sourcePoint"/>
                        <mxPoint x="480" y="1462" as="targetPoint"/>
                    </mxGeometry>
                </mxCell>
                <mxCell id="66" value="Record Order" style="edgeLabel;html=1;align=center;verticalAlign=middle;resizable=0;points=[];fontSize=16;" parent="65" vertex="1" connectable="0">
                    <mxGeometry x="0.0353" relative="1" as="geometry">
                        <mxPoint as="offset"/>
                    </mxGeometry>
                </mxCell>
                <mxCell id="67" value="" style="fontSize=12;html=1;endArrow=ERoneToMany;entryX=0;entryY=0.25;entryDx=0;entryDy=0;exitX=1;exitY=0.25;exitDx=0;exitDy=0;" parent="1" source="38" target="47" edge="1">
                    <mxGeometry width="100" height="100" relative="1" as="geometry">
                        <mxPoint x="590" y="1442" as="sourcePoint"/>
                        <mxPoint x="690" y="1342" as="targetPoint"/>
                    </mxGeometry>
                </mxCell>
                <mxCell id="68" value="Supply Product/Stocks" style="edgeLabel;html=1;align=center;verticalAlign=middle;resizable=0;points=[];fontSize=16;" parent="67" vertex="1" connectable="0">
                    <mxGeometry x="-0.0662" y="1" relative="1" as="geometry">
                        <mxPoint as="offset"/>
                    </mxGeometry>
                </mxCell>
                <mxCell id="69" value="" style="edgeStyle=entityRelationEdgeStyle;fontSize=12;html=1;endArrow=ERmandOne;startArrow=ERmandOne;entryX=0;entryY=0.5;entryDx=0;entryDy=0;exitX=1;exitY=0.75;exitDx=0;exitDy=0;" parent="1" source="18" target="15" edge="1">
                    <mxGeometry width="100" height="100" relative="1" as="geometry">
                        <mxPoint x="440" y="1499" as="sourcePoint"/>
                        <mxPoint x="540" y="1399" as="targetPoint"/>
                    </mxGeometry>
                </mxCell>
                <mxCell id="74" value="Mark as" style="edgeLabel;html=1;align=center;verticalAlign=middle;resizable=0;points=[];fontSize=16;" parent="69" vertex="1" connectable="0">
                    <mxGeometry x="-0.0645" y="2" relative="1" as="geometry">
                        <mxPoint as="offset"/>
                    </mxGeometry>
                </mxCell>
                <mxCell id="71" value="" style="edgeStyle=entityRelationEdgeStyle;fontSize=12;html=1;endArrow=ERmandOne;startArrow=ERmandOne;entryX=0;entryY=0.5;entryDx=0;entryDy=0;exitX=1;exitY=0.25;exitDx=0;exitDy=0;" parent="1" source="16" target="12" edge="1">
                    <mxGeometry width="100" height="100" relative="1" as="geometry">
                        <mxPoint x="890" y="1459" as="sourcePoint"/>
                        <mxPoint x="1100" y="1379" as="targetPoint"/>
                    </mxGeometry>
                </mxCell>
                <mxCell id="77" value="Generate Report" style="edgeLabel;html=1;align=center;verticalAlign=middle;resizable=0;points=[];fontSize=16;" parent="71" vertex="1" connectable="0">
                    <mxGeometry x="-0.1196" y="-2" relative="1" as="geometry">
                        <mxPoint x="-1" as="offset"/>
                    </mxGeometry>
                </mxCell>
                <mxCell id="72" value="" style="edgeStyle=entityRelationEdgeStyle;fontSize=12;html=1;endArrow=ERmandOne;startArrow=ERmandOne;entryX=0;entryY=0.5;entryDx=0;entryDy=0;exitX=1;exitY=0.25;exitDx=0;exitDy=0;" parent="1" source="26" target="32" edge="1">
                    <mxGeometry width="100" height="100" relative="1" as="geometry">
                        <mxPoint x="890" y="1616.5" as="sourcePoint"/>
                        <mxPoint x="1130" y="1589" as="targetPoint"/>
                    </mxGeometry>
                </mxCell>
                <mxCell id="76" value="Record to" style="edgeLabel;html=1;align=center;verticalAlign=middle;resizable=0;points=[];fontSize=16;" parent="72" vertex="1" connectable="0">
                    <mxGeometry x="-0.0865" y="-4" relative="1" as="geometry">
                        <mxPoint as="offset"/>
                    </mxGeometry>
                </mxCell>
                <mxCell id="73" value="" style="edgeStyle=entityRelationEdgeStyle;fontSize=12;html=1;endArrow=ERmandOne;startArrow=ERmandOne;entryX=0;entryY=0.5;entryDx=0;entryDy=0;exitX=1;exitY=0.5;exitDx=0;exitDy=0;" parent="1" source="13" target="50" edge="1">
                    <mxGeometry width="100" height="100" relative="1" as="geometry">
                        <mxPoint x="1330" y="1442.7499999999995" as="sourcePoint"/>
                        <mxPoint x="1570" y="1415.25" as="targetPoint"/>
                    </mxGeometry>
                </mxCell>
                <mxCell id="78" value="Generate Sales/Analytics" style="edgeLabel;html=1;align=center;verticalAlign=middle;resizable=0;points=[];fontSize=16;" parent="73" vertex="1" connectable="0">
                    <mxGeometry x="-0.0368" y="-4" relative="1" as="geometry">
                        <mxPoint x="1" as="offset"/>
                    </mxGeometry>
                </mxCell>
                <mxCell id="79" value="" style="edgeStyle=entityRelationEdgeStyle;fontSize=12;html=1;endArrow=ERmandOne;startArrow=ERmandOne;entryX=0;entryY=0.25;entryDx=0;entryDy=0;exitX=1;exitY=0.25;exitDx=0;exitDy=0;" parent="1" source="18" target="26" edge="1">
                    <mxGeometry width="100" height="100" relative="1" as="geometry">
                        <mxPoint x="420" y="1469" as="sourcePoint"/>
                        <mxPoint x="630" y="1489" as="targetPoint"/>
                    </mxGeometry>
                </mxCell>
                <mxCell id="80" value="Mark as" style="edgeLabel;html=1;align=center;verticalAlign=middle;resizable=0;points=[];fontSize=16;" parent="79" vertex="1" connectable="0">
                    <mxGeometry x="-0.0708" y="-1" relative="1" as="geometry">
                        <mxPoint as="offset"/>
                    </mxGeometry>
                </mxCell>
                <mxCell id="81" value="" style="fontSize=12;html=1;endArrow=ERmandOne;startArrow=ERmandOne;entryX=0.5;entryY=1;entryDx=0;entryDy=0;exitX=0.5;exitY=0;exitDx=0;exitDy=0;" parent="1" source="25" target="38" edge="1">
                    <mxGeometry width="100" height="100" relative="1" as="geometry">
                        <mxPoint x="670" y="1424.5" as="sourcePoint"/>
                        <mxPoint x="920" y="1412" as="targetPoint"/>
                    </mxGeometry>
                </mxCell>
                <mxCell id="82" value="Return item" style="edgeLabel;html=1;align=center;verticalAlign=middle;resizable=0;points=[];fontSize=16;" parent="81" vertex="1" connectable="0">
                    <mxGeometry x="-0.0865" y="-4" relative="1" as="geometry">
                        <mxPoint as="offset"/>
                    </mxGeometry>
                </mxCell>
                <mxCell id="87" value="Buy" style="fontSize=12;html=1;endArrow=ERoneToMany;exitX=0.5;exitY=1;exitDx=0;exitDy=0;entryX=0.5;entryY=0;entryDx=0;entryDy=0;" edge="1" parent="1" source="3" target="91">
                    <mxGeometry width="100" height="100" relative="1" as="geometry">
                        <mxPoint x="520" y="630" as="sourcePoint"/>
                        <mxPoint x="310" y="630" as="targetPoint"/>
                    </mxGeometry>
                </mxCell>
                <mxCell id="91" value="Product" style="shape=table;startSize=30;container=1;collapsible=1;childLayout=tableLayout;fixedRows=1;rowLines=0;fontStyle=1;align=center;resizeLast=1;" vertex="1" parent="1">
                    <mxGeometry x="195" y="650" width="230" height="150" as="geometry"/>
                </mxCell>
                <mxCell id="92" value="" style="shape=tableRow;horizontal=0;startSize=0;swimlaneHead=0;swimlaneBody=0;fillColor=none;collapsible=0;dropTarget=0;points=[[0,0.5],[1,0.5]];portConstraint=eastwest;top=0;left=0;right=0;bottom=1;" vertex="1" parent="91">
                    <mxGeometry y="30" width="230" height="30" as="geometry"/>
                </mxCell>
                <mxCell id="93" value="PK" style="shape=partialRectangle;connectable=0;fillColor=none;top=0;left=0;bottom=0;right=0;fontStyle=1;overflow=hidden;" vertex="1" parent="92">
                    <mxGeometry width="30" height="30" as="geometry">
                        <mxRectangle width="30" height="30" as="alternateBounds"/>
                    </mxGeometry>
                </mxCell>
                <mxCell id="94" value="product_id" style="shape=partialRectangle;connectable=0;fillColor=none;top=0;left=0;bottom=0;right=0;align=left;spacingLeft=6;fontStyle=5;overflow=hidden;" vertex="1" parent="92">
                    <mxGeometry x="30" width="200" height="30" as="geometry">
                        <mxRectangle width="200" height="30" as="alternateBounds"/>
                    </mxGeometry>
                </mxCell>
                <mxCell id="95" value="" style="shape=tableRow;horizontal=0;startSize=0;swimlaneHead=0;swimlaneBody=0;fillColor=none;collapsible=0;dropTarget=0;points=[[0,0.5],[1,0.5]];portConstraint=eastwest;top=0;left=0;right=0;bottom=0;" vertex="1" parent="91">
                    <mxGeometry y="60" width="230" height="30" as="geometry"/>
                </mxCell>
                <mxCell id="96" value="" style="shape=partialRectangle;connectable=0;fillColor=none;top=0;left=0;bottom=0;right=0;editable=1;overflow=hidden;" vertex="1" parent="95">
                    <mxGeometry width="30" height="30" as="geometry">
                        <mxRectangle width="30" height="30" as="alternateBounds"/>
                    </mxGeometry>
                </mxCell>
                <mxCell id="97" value="product_name (varchar)" style="shape=partialRectangle;connectable=0;fillColor=none;top=0;left=0;bottom=0;right=0;align=left;spacingLeft=6;overflow=hidden;" vertex="1" parent="95">
                    <mxGeometry x="30" width="200" height="30" as="geometry">
                        <mxRectangle width="200" height="30" as="alternateBounds"/>
                    </mxGeometry>
                </mxCell>
                <mxCell id="98" value="" style="shape=tableRow;horizontal=0;startSize=0;swimlaneHead=0;swimlaneBody=0;fillColor=none;collapsible=0;dropTarget=0;points=[[0,0.5],[1,0.5]];portConstraint=eastwest;top=0;left=0;right=0;bottom=0;" vertex="1" parent="91">
                    <mxGeometry y="90" width="230" height="30" as="geometry"/>
                </mxCell>
                <mxCell id="99" value="" style="shape=partialRectangle;connectable=0;fillColor=none;top=0;left=0;bottom=0;right=0;editable=1;overflow=hidden;" vertex="1" parent="98">
                    <mxGeometry width="30" height="30" as="geometry">
                        <mxRectangle width="30" height="30" as="alternateBounds"/>
                    </mxGeometry>
                </mxCell>
                <mxCell id="100" value="qty (int)" style="shape=partialRectangle;connectable=0;fillColor=none;top=0;left=0;bottom=0;right=0;align=left;spacingLeft=6;overflow=hidden;" vertex="1" parent="98">
                    <mxGeometry x="30" width="200" height="30" as="geometry">
                        <mxRectangle width="200" height="30" as="alternateBounds"/>
                    </mxGeometry>
                </mxCell>
                <mxCell id="101" value="" style="shape=tableRow;horizontal=0;startSize=0;swimlaneHead=0;swimlaneBody=0;fillColor=none;collapsible=0;dropTarget=0;points=[[0,0.5],[1,0.5]];portConstraint=eastwest;top=0;left=0;right=0;bottom=0;" vertex="1" parent="91">
                    <mxGeometry y="120" width="230" height="30" as="geometry"/>
                </mxCell>
                <mxCell id="102" value="" style="shape=partialRectangle;connectable=0;fillColor=none;top=0;left=0;bottom=0;right=0;editable=1;overflow=hidden;" vertex="1" parent="101">
                    <mxGeometry width="30" height="30" as="geometry">
                        <mxRectangle width="30" height="30" as="alternateBounds"/>
                    </mxGeometry>
                </mxCell>
                <mxCell id="103" value="total_price (float)" style="shape=partialRectangle;connectable=0;fillColor=none;top=0;left=0;bottom=0;right=0;align=left;spacingLeft=6;overflow=hidden;" vertex="1" parent="101">
                    <mxGeometry x="30" width="200" height="30" as="geometry">
                        <mxRectangle width="200" height="30" as="alternateBounds"/>
                    </mxGeometry>
                </mxCell>
                <mxCell id="105" value="" style="fontSize=12;html=1;endArrow=ERoneToMany;exitX=0.5;exitY=0;exitDx=0;exitDy=0;" edge="1" parent="1" source="5">
                    <mxGeometry width="100" height="100" relative="1" as="geometry">
                        <mxPoint x="630" y="820" as="sourcePoint"/>
                        <mxPoint x="310" y="800" as="targetPoint"/>
                    </mxGeometry>
                </mxCell>
            </root>
        </mxGraphModel>
    </diagram>
</mxfile>